# xmcd
#
# Track frame offsets:
#	150
#	39914
#	76823
#	119717
#	145019
#	180895
#	205754
#
# Disc length: 3211 seconds
#
# Revision: 1
# Processed by: cddbd v1.5.2PL0 Copyright (c) Steve Scherf et al.
# Submitted via: audiograbber 1.83.01
#
DISCID=500c8907
DTITLE=Grateful Dead - 93-08-22 Autzen Stadium, Eugene OR
DYEAR=1900
DGENRE=
TTITLE0=Jack Straw
TTITLE1=Bertha
TTITLE2=Little Red Rooster
TTITLE3=Broken Arrow
TTITLE4=Althea
TTITLE5=When I Paint My Masterpiece
TTITLE6=Tennessee Jed
EXTD=
EXTT0=
EXTT1=
EXTT2=
EXTT3=
EXTT4=
EXTT5=
EXTT6=
PLAYORDER=
